<svg width="24" height="34" viewBox="0 0 24 34" fill="none" xmlns="http://www.w3.org/2000/svg">
<path d="M15 17V5C15 4.60218 14.842 4.22064 14.5607 3.93934C14.2794 3.65804 13.8978 3.5 13.5 3.5H10.5C10.1022 3.5 9.72064 3.65804 9.43934 3.93934C9.15804 4.22064 9 4.60218 9 5V17" stroke="#646677" stroke-linecap="round" stroke-linejoin="round"/>
<path d="M18 6.5H6C5.17157 6.5 4.5 7.17157 4.5 8V15.5C4.5 16.3284 5.17157 17 6 17H18C18.8284 17 19.5 16.3284 19.5 15.5V8C19.5 7.17157 18.8284 6.5 18 6.5Z" stroke="#646677" stroke-linecap="round" stroke-linejoin="round"/>
</svg>
